<svg viewBox="0 0 100 100" xmlns="http://www.w3.org/2000/svg">
  <path fill="#1a1a1a" d="M50 15 C45 15 42 10 40 5 C40 15 38 20 35 25 C25 25 15 35 15 50 C15 70 30 85 50 85 C70 85 85 70 85 50 C85 35 75 25 65 25 C62 20 60 15 60 5 C58 10 55 15 50 15Z"/>
  <circle cx="38" cy="45" r="3" fill="#f5f1eb"/>
  <circle cx="62" cy="45" r="3" fill="#f5f1eb"/>
  <ellipse cx="50" cy="55" rx="4" ry="2.5" fill="#1a1a1a"/>
  <line x1="25" y1="50" x2="35" y2="48" stroke="#f5f1eb" stroke-width="1.5" stroke-linecap="round"/>
  <line x1="25" y1="55" x2="35" y2="54" stroke="#f5f1eb" stroke-width="1.5" stroke-linecap="round"/>
  <line x1="65" y1="48" x2="75" y2="50" stroke="#f5f1eb" stroke-width="1.5" stroke-linecap="round"/>
  <line x1="65" y1="54" x2="75" y2="55" stroke="#f5f1eb" stroke-width="1.5" stroke-linecap="round"/>
</svg>
